<mxfile host="app.diagrams.net" modified="2021-04-19T07:14:04.071Z" agent="5.0 (Macintosh; Intel Mac OS X 10_15_6) AppleWebKit/537.36 (KHTML, like Gecko) Chrome/89.0.4389.82 Safari/537.36" etag="QKz-E2Z2vkyZRxAdBMzK" version="14.6.1" type="github">
  <diagram id="fgm2jJ_5UxMwUDWO9V6-" name="第 1 页">
    <mxGraphModel dx="2066" dy="1080" grid="1" gridSize="10" guides="1" tooltips="1" connect="1" arrows="1" fold="1" page="1" pageScale="1" pageWidth="827" pageHeight="1169" math="0" shadow="0">
      <root>
        <mxCell id="0" />
        <mxCell id="1" parent="0" />
        <mxCell id="tL_e4d1WS2P6J4PGJlI9-1" value="积分展示" style="ellipse;whiteSpace=wrap;html=1;fontSize=16;" vertex="1" parent="1">
          <mxGeometry x="195" y="330" width="120" height="80" as="geometry" />
        </mxCell>
        <mxCell id="tL_e4d1WS2P6J4PGJlI9-2" value="" style="endArrow=none;dashed=1;html=1;" edge="1" parent="1">
          <mxGeometry width="50" height="50" relative="1" as="geometry">
            <mxPoint x="85" y="250" as="sourcePoint" />
            <mxPoint x="1040" y="250" as="targetPoint" />
          </mxGeometry>
        </mxCell>
        <mxCell id="tL_e4d1WS2P6J4PGJlI9-3" value="分销商城" style="text;html=1;strokeColor=none;fillColor=none;align=center;verticalAlign=middle;whiteSpace=wrap;rounded=0;fontSize=16;" vertex="1" parent="1">
          <mxGeometry x="85" y="280" width="80" height="30" as="geometry" />
        </mxCell>
        <mxCell id="tL_e4d1WS2P6J4PGJlI9-5" style="rounded=0;orthogonalLoop=1;jettySize=auto;html=1;exitX=1;exitY=1;exitDx=0;exitDy=0;fontSize=16;exitPerimeter=0;entryX=0.5;entryY=0;entryDx=0;entryDy=0;" edge="1" parent="1" source="tL_e4d1WS2P6J4PGJlI9-4" target="tL_e4d1WS2P6J4PGJlI9-1">
          <mxGeometry relative="1" as="geometry">
            <mxPoint x="605" y="40" as="targetPoint" />
          </mxGeometry>
        </mxCell>
        <mxCell id="tL_e4d1WS2P6J4PGJlI9-17" style="edgeStyle=none;rounded=0;orthogonalLoop=1;jettySize=auto;html=1;exitX=1;exitY=1;exitDx=0;exitDy=0;exitPerimeter=0;entryX=0.5;entryY=0;entryDx=0;entryDy=0;fontSize=16;" edge="1" parent="1" source="tL_e4d1WS2P6J4PGJlI9-4" target="tL_e4d1WS2P6J4PGJlI9-14">
          <mxGeometry relative="1" as="geometry" />
        </mxCell>
        <mxCell id="tL_e4d1WS2P6J4PGJlI9-4" value="用户" style="shape=umlActor;verticalLabelPosition=bottom;verticalAlign=top;html=1;outlineConnect=0;fontSize=16;" vertex="1" parent="1">
          <mxGeometry x="110" y="80" width="30" height="60" as="geometry" />
        </mxCell>
        <mxCell id="tL_e4d1WS2P6J4PGJlI9-7" value="" style="endArrow=none;dashed=1;html=1;" edge="1" parent="1">
          <mxGeometry width="50" height="50" relative="1" as="geometry">
            <mxPoint x="79" y="490" as="sourcePoint" />
            <mxPoint x="1070" y="490" as="targetPoint" />
          </mxGeometry>
        </mxCell>
        <mxCell id="tL_e4d1WS2P6J4PGJlI9-8" value="" style="endArrow=none;dashed=1;html=1;" edge="1" parent="1">
          <mxGeometry width="50" height="50" relative="1" as="geometry">
            <mxPoint x="79" y="690" as="sourcePoint" />
            <mxPoint x="1070" y="690" as="targetPoint" />
          </mxGeometry>
        </mxCell>
        <mxCell id="tL_e4d1WS2P6J4PGJlI9-9" value="" style="endArrow=none;dashed=1;html=1;" edge="1" parent="1">
          <mxGeometry width="50" height="50" relative="1" as="geometry">
            <mxPoint x="82" y="910" as="sourcePoint" />
            <mxPoint x="1050" y="910" as="targetPoint" />
          </mxGeometry>
        </mxCell>
        <mxCell id="tL_e4d1WS2P6J4PGJlI9-10" value="三方积分系统" style="text;html=1;strokeColor=none;fillColor=none;align=center;verticalAlign=middle;whiteSpace=wrap;rounded=0;fontSize=16;" vertex="1" parent="1">
          <mxGeometry x="85" y="710" width="110" height="30" as="geometry" />
        </mxCell>
        <mxCell id="tL_e4d1WS2P6J4PGJlI9-15" style="edgeStyle=none;rounded=0;orthogonalLoop=1;jettySize=auto;html=1;exitX=0.5;exitY=0;exitDx=0;exitDy=0;entryX=0.5;entryY=1;entryDx=0;entryDy=0;fontSize=16;" edge="1" parent="1" source="tL_e4d1WS2P6J4PGJlI9-11" target="tL_e4d1WS2P6J4PGJlI9-1">
          <mxGeometry relative="1" as="geometry" />
        </mxCell>
        <mxCell id="tL_e4d1WS2P6J4PGJlI9-16" value="获取用户积分" style="edgeLabel;html=1;align=center;verticalAlign=middle;resizable=0;points=[];fontSize=16;" vertex="1" connectable="0" parent="tL_e4d1WS2P6J4PGJlI9-15">
          <mxGeometry x="-0.1333" relative="1" as="geometry">
            <mxPoint y="-24" as="offset" />
          </mxGeometry>
        </mxCell>
        <mxCell id="tL_e4d1WS2P6J4PGJlI9-11" value="积分查询" style="ellipse;whiteSpace=wrap;html=1;fontSize=16;" vertex="1" parent="1">
          <mxGeometry x="195" y="770" width="120" height="80" as="geometry" />
        </mxCell>
        <mxCell id="tL_e4d1WS2P6J4PGJlI9-19" style="edgeStyle=none;rounded=0;orthogonalLoop=1;jettySize=auto;html=1;exitX=0.5;exitY=1;exitDx=0;exitDy=0;fontSize=16;" edge="1" parent="1" source="tL_e4d1WS2P6J4PGJlI9-14" target="tL_e4d1WS2P6J4PGJlI9-18">
          <mxGeometry relative="1" as="geometry" />
        </mxCell>
        <mxCell id="tL_e4d1WS2P6J4PGJlI9-20" value="发起扣款请求" style="edgeLabel;html=1;align=center;verticalAlign=middle;resizable=0;points=[];fontSize=16;" vertex="1" connectable="0" parent="tL_e4d1WS2P6J4PGJlI9-19">
          <mxGeometry x="0.05" y="1" relative="1" as="geometry">
            <mxPoint x="-1" y="-9" as="offset" />
          </mxGeometry>
        </mxCell>
        <mxCell id="tL_e4d1WS2P6J4PGJlI9-14" value="订单支付" style="ellipse;whiteSpace=wrap;html=1;fontSize=16;" vertex="1" parent="1">
          <mxGeometry x="385" y="330" width="120" height="80" as="geometry" />
        </mxCell>
        <mxCell id="tL_e4d1WS2P6J4PGJlI9-21" style="edgeStyle=orthogonalEdgeStyle;rounded=0;orthogonalLoop=1;jettySize=auto;html=1;exitX=1;exitY=0.5;exitDx=0;exitDy=0;entryX=1;entryY=0.5;entryDx=0;entryDy=0;fontSize=16;" edge="1" parent="1" source="tL_e4d1WS2P6J4PGJlI9-18" target="tL_e4d1WS2P6J4PGJlI9-14">
          <mxGeometry relative="1" as="geometry">
            <Array as="points">
              <mxPoint x="625" y="810" />
              <mxPoint x="625" y="370" />
            </Array>
          </mxGeometry>
        </mxCell>
        <mxCell id="tL_e4d1WS2P6J4PGJlI9-22" value="实时反馈扣款结果" style="edgeLabel;html=1;align=center;verticalAlign=middle;resizable=0;points=[];fontSize=16;" vertex="1" connectable="0" parent="tL_e4d1WS2P6J4PGJlI9-21">
          <mxGeometry x="-0.1324" y="1" relative="1" as="geometry">
            <mxPoint x="6" y="-15" as="offset" />
          </mxGeometry>
        </mxCell>
        <mxCell id="tL_e4d1WS2P6J4PGJlI9-18" value="积分扣款" style="ellipse;whiteSpace=wrap;html=1;fontSize=16;" vertex="1" parent="1">
          <mxGeometry x="385" y="770" width="120" height="80" as="geometry" />
        </mxCell>
        <mxCell id="tL_e4d1WS2P6J4PGJlI9-25" style="edgeStyle=orthogonalEdgeStyle;rounded=0;orthogonalLoop=1;jettySize=auto;html=1;exitX=0.5;exitY=1;exitDx=0;exitDy=0;fontSize=16;" edge="1" parent="1" source="tL_e4d1WS2P6J4PGJlI9-23" target="tL_e4d1WS2P6J4PGJlI9-24">
          <mxGeometry relative="1" as="geometry" />
        </mxCell>
        <mxCell id="tL_e4d1WS2P6J4PGJlI9-26" value="发起退还请求" style="edgeLabel;html=1;align=center;verticalAlign=middle;resizable=0;points=[];fontSize=16;" vertex="1" connectable="0" parent="tL_e4d1WS2P6J4PGJlI9-25">
          <mxGeometry x="-0.1889" relative="1" as="geometry">
            <mxPoint as="offset" />
          </mxGeometry>
        </mxCell>
        <mxCell id="tL_e4d1WS2P6J4PGJlI9-23" value="订单退款" style="ellipse;whiteSpace=wrap;html=1;fontSize=16;" vertex="1" parent="1">
          <mxGeometry x="720" y="330" width="120" height="80" as="geometry" />
        </mxCell>
        <mxCell id="tL_e4d1WS2P6J4PGJlI9-27" style="edgeStyle=orthogonalEdgeStyle;rounded=0;orthogonalLoop=1;jettySize=auto;html=1;exitX=1;exitY=0.5;exitDx=0;exitDy=0;entryX=1;entryY=0.5;entryDx=0;entryDy=0;fontSize=16;" edge="1" parent="1" source="tL_e4d1WS2P6J4PGJlI9-24" target="tL_e4d1WS2P6J4PGJlI9-23">
          <mxGeometry relative="1" as="geometry">
            <Array as="points">
              <mxPoint x="950" y="810" />
              <mxPoint x="950" y="370" />
            </Array>
          </mxGeometry>
        </mxCell>
        <mxCell id="tL_e4d1WS2P6J4PGJlI9-28" value="实时反馈扣款结果" style="edgeLabel;html=1;align=center;verticalAlign=middle;resizable=0;points=[];fontSize=16;" vertex="1" connectable="0" parent="tL_e4d1WS2P6J4PGJlI9-27">
          <mxGeometry x="-0.097" y="-3" relative="1" as="geometry">
            <mxPoint as="offset" />
          </mxGeometry>
        </mxCell>
        <mxCell id="tL_e4d1WS2P6J4PGJlI9-24" value="积分退还" style="ellipse;whiteSpace=wrap;html=1;fontSize=16;" vertex="1" parent="1">
          <mxGeometry x="720" y="770" width="120" height="80" as="geometry" />
        </mxCell>
      </root>
    </mxGraphModel>
  </diagram>
</mxfile>
